<svg width="7" height="10" viewBox="0 0 7 10" fill="none" xmlns="http://www.w3.org/2000/svg">
<path d="M0.96959 0.226975C0.828987 0.367621 0.75 0.558352 0.75 0.757225C0.75 0.956098 0.828987 1.14683 0.96959 1.28748L4.68209 4.99998L0.96959 8.71247C0.832971 8.85393 0.757375 9.04338 0.759084 9.24003C0.760793 9.43667 0.83967 9.62478 0.978726 9.76384C1.11778 9.9029 1.30589 9.98177 1.50254 9.98348C1.69919 9.98519 1.88864 9.90959 2.03009 9.77297L6.27284 5.53022C6.41344 5.38958 6.49243 5.19885 6.49243 4.99998C6.49243 4.8011 6.41344 4.61037 6.27284 4.46973L2.03009 0.226975C1.88944 0.0863718 1.69871 0.00738525 1.49984 0.00738525C1.30097 0.00738525 1.11024 0.0863718 0.96959 0.226975Z" fill="black"/>
</svg>
